<mxfile modified="None" type="device">
  <diagram name="many-trees-sibling.drawio" id="82e514795f99">
    <mxGraphModel dx="1600" dy="850" grid="1" gridSize="10" guides="1" tooltips="1" connect="1"
      arrows="1" fold="1" page="1" pageScale="1" pageWidth="1100" pageHeight="850" math="0"
      shadow="0">
      <root>
        <mxCell id="0" />
        <mxCell id="1" parent="0" />
        <mxCell id="82e514795f99-7" style="edgeStyle=orthogonalEdgeStyle;rounded=0;orthogonalLoop=1;jettySize=auto;html=1;exitX=0.5;exitY=1;exitDx=0;exitDy=0;entryX=0.5;entryY=0;entryDx=0;entryDy=0;startArrow=classic;endArrow=none;curved=0;dashed=0" edge="1" parent="1" source="82e514795f99-1" target="82e514795f99-2">
          <mxGeometry relative="1" as="geometry" />
        </mxCell>
        <mxCell id="82e514795f99-8" value="pmd::SubClassOf" style="edgeLabel;html=1;align=center;verticalAlign=middle;resizable=0;points=[];" vertex="1" connectable="0" parent="82e514795f99-7">
          <mxGeometry x="0" y="0" relative="1" as="geometry">
            <mxPoint as="offset" />
          </mxGeometry>
        </mxCell>        <mxCell id="82e514795f99-9" style="edgeStyle=orthogonalEdgeStyle;rounded=0;orthogonalLoop=1;jettySize=auto;html=1;exitX=0.5;exitY=1;exitDx=0;exitDy=0;entryX=0.5;entryY=0;entryDx=0;entryDy=0;startArrow=classic;endArrow=none;curved=0;dashed=0" edge="1" parent="1" source="82e514795f99-2" target="82e514795f99-3">
          <mxGeometry relative="1" as="geometry" />
        </mxCell>
        <mxCell id="82e514795f99-10" value="pmd::SubClassOf" style="edgeLabel;html=1;align=center;verticalAlign=middle;resizable=0;points=[];" vertex="1" connectable="0" parent="82e514795f99-9">
          <mxGeometry x="0" y="0" relative="1" as="geometry">
            <mxPoint as="offset" />
          </mxGeometry>
        </mxCell>        <mxCell id="82e514795f99-11" style="edgeStyle=orthogonalEdgeStyle;rounded=0;orthogonalLoop=1;jettySize=auto;html=1;exitX=0.5;exitY=1;exitDx=0;exitDy=0;entryX=0.5;entryY=0;entryDx=0;entryDy=0;startArrow=classic;endArrow=none;curved=0;dashed=0" edge="1" parent="1" source="82e514795f99-2" target="82e514795f99-4">
          <mxGeometry relative="1" as="geometry" />
        </mxCell>
        <mxCell id="82e514795f99-12" value="pmd::SubClassOf" style="edgeLabel;html=1;align=center;verticalAlign=middle;resizable=0;points=[];" vertex="1" connectable="0" parent="82e514795f99-11">
          <mxGeometry x="0" y="0" relative="1" as="geometry">
            <mxPoint as="offset" />
          </mxGeometry>
        </mxCell>        <mxCell id="82e514795f99-13" style="edgeStyle=orthogonalEdgeStyle;rounded=0;orthogonalLoop=1;jettySize=auto;html=1;exitX=0.5;exitY=1;exitDx=0;exitDy=0;entryX=0.5;entryY=0;entryDx=0;entryDy=0;startArrow=classic;endArrow=none;curved=0;dashed=0" edge="1" parent="1" source="82e514795f99-3" target="82e514795f99-6">
          <mxGeometry relative="1" as="geometry" />
        </mxCell>
        <mxCell id="82e514795f99-14" value="pmd::SubClassOf" style="edgeLabel;html=1;align=center;verticalAlign=middle;resizable=0;points=[];" vertex="1" connectable="0" parent="82e514795f99-13">
          <mxGeometry x="0" y="0" relative="1" as="geometry">
            <mxPoint as="offset" />
          </mxGeometry>
        </mxCell>        <mxCell id="82e514795f99-15" style="edgeStyle=orthogonalEdgeStyle;rounded=0;orthogonalLoop=1;jettySize=auto;html=1;exitX=0.5;exitY=1;exitDx=0;exitDy=0;entryX=0.5;entryY=0;entryDx=0;entryDy=0;startArrow=classic;endArrow=none;curved=0;dashed=0" edge="1" parent="1" source="82e514795f99-4" target="82e514795f99-5">
          <mxGeometry relative="1" as="geometry" />
        </mxCell>
        <mxCell id="82e514795f99-16" value="pmd::SubClassOf" style="edgeLabel;html=1;align=center;verticalAlign=middle;resizable=0;points=[];" vertex="1" connectable="0" parent="82e514795f99-15">
          <mxGeometry x="0" y="0" relative="1" as="geometry">
            <mxPoint as="offset" />
          </mxGeometry>
        </mxCell>        <mxCell id="82e514795f99-20" style="edgeStyle=orthogonalEdgeStyle;rounded=0;orthogonalLoop=1;jettySize=auto;html=1;exitX=0.5;exitY=1;exitDx=0;exitDy=0;entryX=0.5;entryY=0;entryDx=0;entryDy=0;startArrow=classic;endArrow=none;curved=0;dashed=0" edge="1" parent="1" source="82e514795f99-18" target="82e514795f99-19">
          <mxGeometry relative="1" as="geometry" />
        </mxCell>
        <mxCell id="82e514795f99-21" value="pmd::SubClassOf" style="edgeLabel;html=1;align=center;verticalAlign=middle;resizable=0;points=[];" vertex="1" connectable="0" parent="82e514795f99-20">
          <mxGeometry x="0" y="0" relative="1" as="geometry">
            <mxPoint as="offset" />
          </mxGeometry>
        </mxCell>        <mxCell id="82e514795f99-22" style="edgeStyle=orthogonalEdgeStyle;rounded=0;orthogonalLoop=1;jettySize=auto;html=1;exitX=0.5;exitY=1;exitDx=0;exitDy=0;entryX=0.5;entryY=0;entryDx=0;entryDy=0;startArrow=classic;endArrow=none;curved=0;dashed=0" edge="1" parent="1" source="82e514795f99-19" target="82e514795f99-17">
          <mxGeometry relative="1" as="geometry" />
        </mxCell>
        <mxCell id="82e514795f99-23" value="pmd::SubClassOf" style="edgeLabel;html=1;align=center;verticalAlign=middle;resizable=0;points=[];" vertex="1" connectable="0" parent="82e514795f99-22">
          <mxGeometry x="0" y="0" relative="1" as="geometry">
            <mxPoint as="offset" />
          </mxGeometry>
        </mxCell>        <mxCell id="82e514795f99-24" style="edgeStyle=orthogonalEdgeStyle;rounded=0;orthogonalLoop=1;jettySize=auto;html=1;exitX=1;exitY=0.5;exitDx=0;exitDy=0;entryX=0;entryY=0.5;entryDx=0;entryDy=0;startArrow=classic;endArrow=none;curved=1;dashed=1" edge="1" parent="1" source="82e514795f99-4" target="82e514795f99-3">
          <mxGeometry relative="1" as="geometry" />
        </mxCell>
        <mxCell id="82e514795f99-25" value="pmd:sibling" style="edgeLabel;html=1;align=center;verticalAlign=middle;resizable=0;points=[];" vertex="1" connectable="0" parent="82e514795f99-24">
          <mxGeometry x="0" y="0" relative="1" as="geometry">
            <mxPoint as="offset" />
          </mxGeometry>
        </mxCell>        <mxCell id="82e514795f99-26" style="edgeStyle=orthogonalEdgeStyle;rounded=0;orthogonalLoop=1;jettySize=auto;html=1;exitX=0;exitY=0.5;exitDx=0;exitDy=0;entryX=1;entryY=0.5;entryDx=0;entryDy=0;startArrow=classic;endArrow=none;curved=1;dashed=1" edge="1" parent="1" source="82e514795f99-6" target="82e514795f99-17">
          <mxGeometry relative="1" as="geometry" />
        </mxCell>
        <mxCell id="82e514795f99-27" value="pmd:sibling" style="edgeLabel;html=1;align=center;verticalAlign=middle;resizable=0;points=[];" vertex="1" connectable="0" parent="82e514795f99-26">
          <mxGeometry x="0" y="0" relative="1" as="geometry">
            <mxPoint as="offset" />
          </mxGeometry>
        </mxCell>        <mxCell id="82e514795f99-28" style="edgeStyle=orthogonalEdgeStyle;rounded=0;orthogonalLoop=1;jettySize=auto;html=1;exitX=0;exitY=0.5;exitDx=0;exitDy=0;entryX=1;entryY=0.5;entryDx=0;entryDy=0;startArrow=classic;endArrow=none;curved=1;dashed=1" edge="1" parent="1" source="82e514795f99-6" target="82e514795f99-5">
          <mxGeometry relative="1" as="geometry" />
        </mxCell>
        <mxCell id="82e514795f99-29" value="pmd:sibling" style="edgeLabel;html=1;align=center;verticalAlign=middle;resizable=0;points=[];" vertex="1" connectable="0" parent="82e514795f99-28">
          <mxGeometry x="0" y="0" relative="1" as="geometry">
            <mxPoint as="offset" />
          </mxGeometry>
        </mxCell>        <mxCell id="82e514795f99-1" value="term_1" style="rounded=0;whiteSpace=wrap;html=1;fillColor=#aaaaaa;strokeColor=#000000;fontStyle=1;" parent="1" vertex="1">
          <mxGeometry x="410.0" y="0" width="200" height="80" as="geometry" />
        </mxCell>
        <mxCell id="82e514795f99-2" value="term_3" style="rounded=0;whiteSpace=wrap;html=1;fillColor=#aaaaaa;strokeColor=#000000;fontStyle=1;" parent="1" vertex="1">
          <mxGeometry x="410.0" y="180" width="200" height="80" as="geometry" />
        </mxCell>
        <mxCell id="82e514795f99-3" value="term_5" style="rounded=0;whiteSpace=wrap;html=1;fillColor=#aaaaaa;strokeColor=#000000;fontStyle=1;" parent="1" vertex="1">
          <mxGeometry x="205.0" y="360" width="200" height="80" as="geometry" />
        </mxCell>
        <mxCell id="82e514795f99-4" value="term_4" style="rounded=0;whiteSpace=wrap;html=1;fillColor=#aaaaaa;strokeColor=#000000;fontStyle=1;" parent="1" vertex="1">
          <mxGeometry x="615.0" y="360" width="200" height="80" as="geometry" />
        </mxCell>
        <mxCell id="82e514795f99-5" value="term_7" style="rounded=0;whiteSpace=wrap;html=1;fillColor=#aaaaaa;strokeColor=#000000;fontStyle=1;" parent="1" vertex="1">
          <mxGeometry x="615.0" y="540" width="200" height="80" as="geometry" />
        </mxCell>
        <mxCell id="82e514795f99-6" value="term_8" style="rounded=0;whiteSpace=wrap;html=1;fillColor=#aaaaaa;strokeColor=#000000;fontStyle=1;" parent="1" vertex="1">
          <mxGeometry x="205.0" y="540" width="200" height="80" as="geometry" />
        </mxCell>
        <mxCell id="82e514795f99-17" value="term_9" style="rounded=0;whiteSpace=wrap;html=1;fillColor=#aaaaaa;strokeColor=#000000;fontStyle=1;" parent="1" vertex="1">
          <mxGeometry x="1025.0" y="360" width="200" height="80" as="geometry" />
        </mxCell>
        <mxCell id="82e514795f99-18" value="term_2" style="rounded=0;whiteSpace=wrap;html=1;fillColor=#aaaaaa;strokeColor=#000000;fontStyle=1;" parent="1" vertex="1">
          <mxGeometry x="1025.0" y="0" width="200" height="80" as="geometry" />
        </mxCell>
        <mxCell id="82e514795f99-19" value="term_6" style="rounded=0;whiteSpace=wrap;html=1;fillColor=#aaaaaa;strokeColor=#000000;fontStyle=1;" parent="1" vertex="1">
          <mxGeometry x="1025.0" y="180" width="200" height="80" as="geometry" />
        </mxCell>

      </root>
    </mxGraphModel>
  </diagram>
</mxfile>